<svg width="22" height="22" viewBox="0 0 22 22" fill="none" xmlns="http://www.w3.org/2000/svg">
<path d="M14.9826 8.18604L15.2984 5.58263L15.2984 5.58261C15.372 4.9761 15.4087 4.67285 15.3452 4.42076C15.2606 4.08464 15.0547 3.79831 14.773 3.62476C14.5617 3.4946 14.2786 3.4552 13.7123 3.37641C13.1461 3.29762 12.863 3.25822 12.6276 3.32623C12.3138 3.41691 12.0465 3.63739 11.8845 3.93919C11.763 4.16553 11.6867 4.79421 11.6132 5.40073L5.99258 4.61862C6.06614 4.0121 6.14239 3.38341 6.0789 3.13132C5.99424 2.79521 5.78839 2.50888 5.50664 2.33533C5.29533 2.20516 5.01221 2.16577 4.44597 2.08697C3.87973 2.00818 3.59661 1.96878 3.36127 2.03679C3.04747 2.12747 2.78016 2.34796 2.61813 2.64975C2.49661 2.87609 2.45983 3.17935 2.38627 3.78587L2.07052 6.38928C1.99696 6.9958 1.96018 7.29906 2.02367 7.55115C2.10833 7.88727 2.31417 8.1736 2.59592 8.34715C2.80723 8.47731 3.09035 8.51671 3.65659 8.5955L3.65659 8.5955L3.6566 8.5955C4.22284 8.67429 4.50595 8.71369 4.7413 8.64568C5.0551 8.555 5.32241 8.33451 5.48444 8.03272C5.60595 7.80638 5.6822 7.17769 5.75576 6.57118L11.3763 7.35329C11.3028 7.95981 11.2265 8.5885 11.29 8.84058C11.3747 9.1767 11.5805 9.46303 11.8623 9.63658C12.0736 9.76675 12.3567 9.80614 12.9229 9.88493L12.9229 9.88494L12.923 9.88494C13.4892 9.96373 13.7723 10.0031 14.0076 9.93512C14.3214 9.84444 14.5888 9.62395 14.7508 9.32216C14.8723 9.09582 14.9091 8.79256 14.9826 8.18606L14.9826 8.18604Z" fill="#FFB600"/>
<path opacity="0.5" d="M7.11435 18.2646L6.48 15.7288C6.33222 15.138 6.25832 14.8426 6.29014 14.5838C6.33256 14.2386 6.50126 13.9257 6.75911 13.7137C6.9525 13.5548 7.22827 13.4756 7.77981 13.3173C8.33135 13.159 8.60712 13.0799 8.8488 13.114C9.17103 13.1594 9.46322 13.3401 9.66107 13.6163C9.80947 13.8234 9.96265 14.4358 10.1104 15.0266L15.5851 13.4553C15.4373 12.8645 15.2841 12.2521 15.316 11.9933C15.3584 11.6481 15.5271 11.3352 15.7849 11.1232C15.9783 10.9643 16.2541 10.8851 16.8056 10.7268C17.3572 10.5685 17.6329 10.4894 17.8746 10.5235C18.1969 10.5689 18.489 10.7496 18.6869 11.0258C18.8353 11.2329 18.9092 11.5283 19.057 12.1191L19.6913 14.6549C19.8391 15.2457 19.913 15.5411 19.8812 15.8C19.8388 16.1451 19.6701 16.4581 19.4122 16.67C19.2188 16.829 18.943 16.9081 18.3915 17.0664L18.3915 17.0664L18.3915 17.0664C17.84 17.2247 17.5642 17.3039 17.3225 17.2698C17.0003 17.2243 16.7081 17.0436 16.5102 16.7675C16.3618 16.5603 16.2087 15.9479 16.0609 15.3572L10.5862 16.9285C10.734 17.5192 10.8872 18.1316 10.8554 18.3905C10.8129 18.7356 10.6442 19.0486 10.3864 19.2605C10.193 19.4195 9.91723 19.4986 9.36569 19.6569L9.36568 19.6569L9.36568 19.6569C8.81414 19.8152 8.53837 19.8944 8.2967 19.8603C7.97446 19.8148 7.68228 19.6341 7.48442 19.3579C7.33603 19.1508 7.26214 18.8554 7.11435 18.2646Z" fill="#FFB600"/>
</svg>
